<svg xmlns="http://www.w3.org/2000/svg" viewBox="0 0 110.71 110.16"><g id="Laag_2" data-name="Laag 2"><g id="Laag_1-2" data-name="Laag 1"><path d="M47.55,102.37l-.48,1.85-1.63-.42a3.24,3.24,0,0,0-1.18-.1,2.33,2.33,0,0,0-1.72,1,3,3,0,0,0-.47,1,3.1,3.1,0,0,0-.1,1.15,2.32,2.32,0,0,0,.32,1,2.25,2.25,0,0,0,.71.73,3.55,3.55,0,0,0,1.08.46l1.63.42-.48,1.87-1.53-.4a6.21,6.21,0,0,1-2-.89,4.55,4.55,0,0,1-1.25-1.35,4,4,0,0,1-.54-1.62,4.58,4.58,0,0,1,.13-1.72l.06-.26a4.54,4.54,0,0,1,.71-1.51,4.2,4.2,0,0,1,1.27-1.17,4.33,4.33,0,0,1,1.76-.61A5.75,5.75,0,0,1,46,102Zm1.74.45-2.32,9-2-.52,2.32-9Z" transform="translate(-1.91 -1.68)"/><path d="M34.91,106l-.73,1.53-3.52-1.68.73-1.54Zm1.57-3.28-.73,1.53-3.34-1.6.73-1.53Zm1.63-3.42-.73,1.53-3.6-1.72.73-1.53Zm1.58.75-3.94,8.24-1.8-.87,3.94-8.23Z" transform="translate(-1.91 -1.68)"/><path d="M30.39,94.52a4.89,4.89,0,0,1,1.46,1.54,3.13,3.13,0,0,1,.42,1.63,2.8,2.8,0,0,1-.55,1.54l-1.63-1.17a1.12,1.12,0,0,0,.22-.64,1.34,1.34,0,0,0-.2-.74,2.6,2.6,0,0,0-.74-.75,2.74,2.74,0,0,0-.87-.44,1.26,1.26,0,0,0-.72,0,1,1,0,0,0-.52.39.8.8,0,0,0-.1.78,2.61,2.61,0,0,0,.79,1l.53.45a3.65,3.65,0,0,1,1.27,2,2.5,2.5,0,0,1-.47,2,2.84,2.84,0,0,1-1.23,1,2.73,2.73,0,0,1-1.53.11,4.13,4.13,0,0,1-1.64-.75,4.23,4.23,0,0,1-1.28-1.38,2.77,2.77,0,0,1-.35-1.54,3,3,0,0,1,.57-1.5l1.63,1.16a1.27,1.27,0,0,0-.23.6,1.17,1.17,0,0,0,.13.65,1.79,1.79,0,0,0,.55.6,1.77,1.77,0,0,0,.69.32,1,1,0,0,0,.61-.06,1.07,1.07,0,0,0,.45-.37.91.91,0,0,0,.16-.7,1.3,1.3,0,0,0-.53-.8L26.75,99a5.33,5.33,0,0,1-1.18-1.38,3,3,0,0,1-.43-1.46,2.42,2.42,0,0,1,.49-1.42,2.68,2.68,0,0,1,1.27-1,2.87,2.87,0,0,1,1.65-.08A5.1,5.1,0,0,1,30.39,94.52Z" transform="translate(-1.91 -1.68)"/><path d="M25.86,91.16l-6.34,6.57-1.47-1.42,6.33-6.57Z" transform="translate(-1.91 -1.68)"/><path d="M20.19,84.45a5.22,5.22,0,0,1,.94,2,4.33,4.33,0,0,1,0,1.86,4.69,4.69,0,0,1-.7,1.62,5.13,5.13,0,0,1-1.17,1.24l-.22.16a5,5,0,0,1-1.53.77,4.52,4.52,0,0,1-1.72.19,4.32,4.32,0,0,1-1.73-.52,4.64,4.64,0,0,1-1.52-1.37,5.07,5.07,0,0,1-.94-2,3.89,3.89,0,0,1,.11-2,3.67,3.67,0,0,1,1.1-1.65l1.22,1.65a1.83,1.83,0,0,0-.46.84,2.26,2.26,0,0,0,0,1,2.73,2.73,0,0,0,.5,1,2.65,2.65,0,0,0,.8.74,2.29,2.29,0,0,0,.95.29,2.71,2.71,0,0,0,1-.15,4.06,4.06,0,0,0,1.9-1.43,2.58,2.58,0,0,0,.43-1,2.38,2.38,0,0,0,0-1.06,3,3,0,0,0-.52-1.06,2.94,2.94,0,0,0-1.16-1,2,2,0,0,0-1.27-.16l1.26-.65-1.74,1.3-1.13-1.51,1.57-1.17a3.93,3.93,0,0,1,2.14.43A5.42,5.42,0,0,1,20.19,84.45Zm-2.67,2.31-1.19.89-3-4,1.19-.89Z" transform="translate(-1.91 -1.68)"/><path d="M16.47,79.52,8.09,83.13,6.76,80l5.5-6.11-.17-.39.3.14-7.06,3L4.57,75,13,71.35l1.34,3.11L8.8,80.57,9,81l-.31-.14,7.06-3Z" transform="translate(-1.91 -1.68)"/><path d="M11,60.29,7.67,64.17a12.85,12.85,0,0,1-1,1,3.54,3.54,0,0,1-.85.59,3,3,0,0,1-.93.25,2.45,2.45,0,0,1-1.36-.19,2.28,2.28,0,0,1-1-.93A4.69,4.69,0,0,1,2,63.13c0-.31,0-.62-.06-.94s0-.61,0-.85l1.64-.19v.62l0,.72c0,.24,0,.43.05.58a1.39,1.39,0,0,0,.36.95,1,1,0,0,0,.75.17,1.81,1.81,0,0,0,.79-.29,4.75,4.75,0,0,0,.82-.78l4.36-5ZM6.28,62.2l-1.45.17-.39-3.53,1.45-.16Zm5.34,1a3.77,3.77,0,0,1-.2,1.8,3,3,0,0,1-.94,1.3A2.87,2.87,0,0,1,9,66.92l-.17,0a2.8,2.8,0,0,1-1.67-.33A3.27,3.27,0,0,1,6,65.41l1-.92a1.87,1.87,0,0,0,.71.49,2,2,0,0,0,1,.12,1.69,1.69,0,0,0,.77-.27,1.2,1.2,0,0,0,.48-.6A1.94,1.94,0,0,0,10,63.3,2.43,2.43,0,0,0,9.43,62a2.66,2.66,0,0,0-1.32-.83,5.56,5.56,0,0,0-2.22-.12L5.7,59.33a7.06,7.06,0,0,1,2.37.09,4.77,4.77,0,0,1,1.8.79,4.29,4.29,0,0,1,1.75,3Z" transform="translate(-1.91 -1.68)"/><path d="M11,53.16,1.91,51.6l.34-2,9.12,1.56Zm.3-1.78-1.88-.32.28-1.66a3.34,3.34,0,0,0,0-1.18,2.45,2.45,0,0,0-.39-.95,2.66,2.66,0,0,0-.76-.69,3.23,3.23,0,0,0-1.07-.38,3.17,3.17,0,0,0-1.15,0,2.6,2.6,0,0,0-.93.4,2.28,2.28,0,0,0-.67.77,3.88,3.88,0,0,0-.37,1.12l-.28,1.66-1.9-.32.27-1.57a6,6,0,0,1,.72-2.07,4.39,4.39,0,0,1,1.23-1.36A4.13,4.13,0,0,1,6,44.15a4.73,4.73,0,0,1,1.72,0l.27,0a4.81,4.81,0,0,1,1.57.58,4.37,4.37,0,0,1,1.27,1.16,4.47,4.47,0,0,1,.76,1.7,5.78,5.78,0,0,1,0,2.2Z" transform="translate(-1.91 -1.68)"/><path d="M13,43.34,4.46,40.11l.7-1.87,8.54,3.23ZM6.67,39.08l-1.59-.61,1.38-3.64,1.59.6Zm3.4,1.28-1.59-.6L9.79,36.3l1.59.6Zm3.54,1.34L12,41.1l1.41-3.73L15,38Z" transform="translate(-1.91 -1.68)"/><path d="M16.89,34.47,7.65,32.09l1.11-1.81,7.72,2.14L16,32.7l.67-1.09-.06.55-5.51-5.75,1.07-1.75,6.44,7Z" transform="translate(-1.91 -1.68)"/><path d="M21.06,28.22l-6.77-6.11,1.34-1.49,6.77,6.12ZM16.72,22l-1.26-1.14,2.62-2.9,1.26,1.14Zm2.7,2.44-1.26-1.14,2.48-2.75,1.26,1.14Zm2.81,2.53L21,25.78l2.68-3L24.91,24Z" transform="translate(-1.91 -1.68)"/><path d="M26.45,22.58l-5.69-7.13,1.6-1.28,5.69,7.13Zm1.41-1.12-1.13-1.41,3-2.39,1.13,1.41Z" transform="translate(-1.91 -1.68)"/><path d="M36,16.39a4.76,4.76,0,0,1-2.11.61A4.49,4.49,0,0,1,32,16.69a5,5,0,0,1-1.5-.94,4.55,4.55,0,0,1-1-1.27l-.13-.25a4.7,4.7,0,0,1-.5-1.63A4.39,4.39,0,0,1,29,10.84a4.64,4.64,0,0,1,.85-1.67,5.2,5.2,0,0,1,1.7-1.33,5.11,5.11,0,0,1,2.06-.62,4.52,4.52,0,0,1,1.85.25A4.88,4.88,0,0,1,37,8.38a4.83,4.83,0,0,1,1,1.35l.13.24a4.88,4.88,0,0,1,.37,3.32A4.33,4.33,0,0,1,37.68,15,4.81,4.81,0,0,1,36,16.39Zm-.89-1.7A2.94,2.94,0,0,0,36,14a2.74,2.74,0,0,0,.49-1,3,3,0,0,0,.07-1.08,3.47,3.47,0,0,0-.35-1.09,3.69,3.69,0,0,0-.71-1,2.6,2.6,0,0,0-.93-.55,2.35,2.35,0,0,0-1.06-.12,3.18,3.18,0,0,0-2.06,1.07,2.52,2.52,0,0,0-.5.94,2.56,2.56,0,0,0-.07,1.07,3.51,3.51,0,0,0,.37,1.12,3.36,3.36,0,0,0,.69.91,2.68,2.68,0,0,0,.92.57A2.57,2.57,0,0,0,34,15,2.75,2.75,0,0,0,35.08,14.69Z" transform="translate(-1.91 -1.68)"/><path d="M41.86,13.46,39.42,4.58l2-.54,2.44,8.87Zm1-3-.47-1.71L44,8.31a1.59,1.59,0,0,0,.74-.39,1.29,1.29,0,0,0,.37-.65,1.65,1.65,0,0,0,0-.82,1.75,1.75,0,0,0-.38-.73,1.29,1.29,0,0,0-.65-.37,1.62,1.62,0,0,0-.84,0l-1.58.43-.47-1.71,1.48-.41a4.67,4.67,0,0,1,2-.15,2.88,2.88,0,0,1,1.52.72,3.23,3.23,0,0,1,.88,1.53l0,.2a3.17,3.17,0,0,1,0,1.75,3,3,0,0,1-.94,1.4,4.57,4.57,0,0,1-1.82.9Z" transform="translate(-1.91 -1.68)"/><path d="M50,11.25l-.4-9.12L52.46,2l2.31,5H55l1.83-5.21,2.88-.13.4,9.12-2,.09-.35-7.78H58l-2.15,6L54,9.22l-2.69-5.8.31,0,.35,7.78Z" transform="translate(-1.91 -1.68)"/><path d="M62.35,11.18l1.53-9,2,.34-1.53,9Zm1.72.3.29-1.68,3.93.67L68,12.15Zm.64-3.73L65,6.07l3.64.62-.28,1.68Zm.61-3.59.29-1.68,3.84.66-.28,1.67Z" transform="translate(-1.91 -1.68)"/><path d="M69.87,12.52,73.19,4l3.13,1.23.48,8.2.4.15-.32.12,2.81-7.16,1.79.71-3.33,8.49L75,14.53l-.48-8.2-.4-.16.32-.12-2.81,7.16Z" transform="translate(-1.91 -1.68)"/><path d="M81.59,17.94l4.15-6.34,1.71,1.12L83.3,19.06Zm1.86-7.54,1-1.51,6,3.95-1,1.5Z" transform="translate(-1.91 -1.68)"/><path d="M89.19,23.82l6.88-6.22,1.34,1.48L90.53,25.3Zm1.17,1.3L91.56,24,93,25.62a1.15,1.15,0,0,0,.8.44,1.16,1.16,0,0,0,.83-.36,1.15,1.15,0,0,0,.43-.77,1.12,1.12,0,0,0-.36-.84L93.26,22.5l.92-.83,1.36,1.51a5.35,5.35,0,0,1,1,1.41A2.39,2.39,0,0,1,96.73,26,2.07,2.07,0,0,1,96,27.2l-.13.12a2.49,2.49,0,0,1-1.28.65,2.34,2.34,0,0,1-1.4-.22,4.41,4.41,0,0,1-1.44-1.12Zm3.13-2.83.92-.83,1.21,1.34a1,1,0,0,0,.78.42,1.17,1.17,0,0,0,.78-.33,1.16,1.16,0,0,0,.42-.75,1.08,1.08,0,0,0-.34-.82L96.05,20l1.2-1.08,1.12,1.24a3.89,3.89,0,0,1,1.13,2.24,2.26,2.26,0,0,1-.84,1.89l-.13.13a2,2,0,0,1-1.31.59,2.37,2.37,0,0,1-1.32-.37,5.69,5.69,0,0,1-1.29-1.08Z" transform="translate(-1.91 -1.68)"/><path d="M96,32.13l3.18-2,1.06,1.71-3.18,2Zm2.7-2.2,3.42-5.25,1.11,1.78-2.6,3.86-.09-.37.55.89-.3-.27,4.51-.76,1,1.69-6.12.9Z" transform="translate(-1.91 -1.68)"/><path d="M101.05,43.49a3.78,3.78,0,0,1-.15-1.83,2.83,2.83,0,0,1,.76-1.46,3.73,3.73,0,0,1,1.63-.92l.44-.14.6,2-.55.17a1.31,1.31,0,0,0-.83.62,1.34,1.34,0,0,0-.06,1,1.31,1.31,0,0,0,.63.82,1.35,1.35,0,0,0,1,0l4.37-1.33.6,2-4.26,1.3a3.8,3.8,0,0,1-1.86.15A2.83,2.83,0,0,1,102,45.1,3.66,3.66,0,0,1,101.05,43.49Zm6.57-4.41,1.72-.53L111,44l-1.72.52Z" transform="translate(-1.91 -1.68)"/><path d="M102.89,52.55a4.4,4.4,0,0,1,.27-2.22,3.26,3.26,0,0,1,1.23-1.49,4.56,4.56,0,0,1,2-.66l5.39-.54.2,2-5.46.54a2.13,2.13,0,0,0-1,.34,1.6,1.6,0,0,0-.62.72,2.32,2.32,0,0,0-.13,1.08,2.14,2.14,0,0,0,.35,1,1.51,1.51,0,0,0,.73.59,2.44,2.44,0,0,0,1.07.11l5.46-.54.2,2.05-5.38.54a4.47,4.47,0,0,1-2.14-.26,3.21,3.21,0,0,1-1.5-1.2A4.48,4.48,0,0,1,102.89,52.55Z" transform="translate(-1.91 -1.68)"/><path d="M103.56,58.51l9.06,1.12L112.2,63l-7.82,2.5-.06.42-.19-.28,7.63,1-.24,1.91-9-1.12.41-3.36,7.83-2.5.05-.42.2.28-7.63-1Z" transform="translate(-1.91 -1.68)"/><path d="M100.18,73.37a5.34,5.34,0,0,1,1.14-1.86,4.35,4.35,0,0,1,1.55-1,4.76,4.76,0,0,1,1.74-.3,4.85,4.85,0,0,1,1.67.31l.26.1a4.9,4.9,0,0,1,1.48.86,4.56,4.56,0,0,1,1.09,1.34,4.19,4.19,0,0,1,.5,1.74,4.5,4.5,0,0,1-.32,2,5,5,0,0,1-1.19,1.89,4,4,0,0,1-1.71,1,3.65,3.65,0,0,1-2,0l.72-1.92a1.84,1.84,0,0,0,1-.07,2.07,2.07,0,0,0,.83-.56,2.86,2.86,0,0,0,.58-1,2.67,2.67,0,0,0,.18-1.08,2.1,2.1,0,0,0-.28-1,2.43,2.43,0,0,0-.68-.79,3.83,3.83,0,0,0-1-.57,3.53,3.53,0,0,0-1.19-.25,2.54,2.54,0,0,0-1.07.17,2.27,2.27,0,0,0-.87.6,3,3,0,0,0-.6,1,3,3,0,0,0-.19,1.5,2,2,0,0,0,.56,1.16L101.08,76l2,.77-.66,1.76-1.83-.68a3.86,3.86,0,0,1-.8-2A5.4,5.4,0,0,1,100.18,73.37Zm3.39,1,1.39.52-1.76,4.71-1.39-.52Z" transform="translate(-1.91 -1.68)"/><path d="M100,84.53a1.29,1.29,0,1,1,1.77-.44A1.29,1.29,0,0,1,100,84.53Z" transform="translate(-1.91 -1.68)"/><path d="M91.32,87.92a5.09,5.09,0,0,1,1.73-1.32,4.28,4.28,0,0,1,1.82-.38,4.77,4.77,0,0,1,1.73.35,5.21,5.21,0,0,1,1.45.9l.2.18A5.15,5.15,0,0,1,99.31,89a4.5,4.5,0,0,1,.53,1.65,4.1,4.1,0,0,1-.17,1.79,4.68,4.68,0,0,1-1,1.77,5.07,5.07,0,0,1-1.8,1.33,4.05,4.05,0,0,1-2,.29,3.71,3.71,0,0,1-1.83-.75l1.37-1.53a1.77,1.77,0,0,0,.92.28,2,2,0,0,0,1-.22,2.86,2.86,0,0,0,.9-.68,2.61,2.61,0,0,0,.55-.94,2.21,2.21,0,0,0,.1-1,2.7,2.7,0,0,0-.36-1,4.07,4.07,0,0,0-1.77-1.57,2.66,2.66,0,0,0-1.06-.23,2.39,2.39,0,0,0-1,.24,3.43,3.43,0,0,0-.93.72A2.92,2.92,0,0,0,92,90.5a2,2,0,0,0,.1,1.28l-.89-1.11,1.62,1.45-1.26,1.41-1.45-1.3a3.94,3.94,0,0,1,0-2.18A5.39,5.39,0,0,1,91.32,87.92Zm2.79,2.15,1.11,1L91.86,94.8l-1.1-1Z" transform="translate(-1.91 -1.68)"/><path d="M85.63,93.58l1,1.36-3.19,2.4-1-1.36Zm2.27,3,1,1.36-3,2.23-1-1.36ZM87,92.53l5.47,7.3L90.91,101l-5.48-7.29Zm3,7,1,1.36L88,103.22l-1-1.36Z" transform="translate(-1.91 -1.68)"/><path d="M80.87,97.09l3.89,8.25-3,1.44-6.29-5.28-.39.18.13-.31,3.28,6.95-1.74.82-3.89-8.25,3.06-1.45,6.3,5.29.38-.19-.13.31L79.15,97.9Z" transform="translate(-1.91 -1.68)"/><path d="M73.08,108.42l.41,1.75-7,1.67-.42-1.75Zm-4.2-6.53,1.75,7.37-2,.48-1.75-7.37Z" transform="translate(-1.91 -1.68)"/></g></g></svg>