<svg xmlns="http://www.w3.org/2000/svg" viewBox="0 0 235.52 204.67"><defs><style>.cls-1{fill:#fff;}</style></defs><title>Middel 2</title><g id="Laag_2" data-name="Laag 2"><g id="LOGO"><path class="cls-1" d="M221.09,52.48C206.9,36.61,188.54,31.21,167.6,35.42c-15.47,3.11-25.36,13.86-35,26.53-3.3-4.07-6-7.76-9.1-11.17C119,45.68,113,44.92,108.7,48.63s-4.33,9.3.66,14.66c16.35,17.53,23.58,38.07,20.88,62-1.92,17-10.88,29.89-23.22,41.15-7.37-10.1-10.72-9.78-16-7.63-5.77,2.33-6.35,7.65-2.87,18.24q-11,5.27-7.35,14.62c2.22,5.77,7,7.59,14.51,4.61,4.27-1.7,5.86.28,7.68,3.37,2.29,3.87,6.12,6.2,10.22,4.47,3-1.25,6.54-4.44,7.06-7.28.76-4.16-1-8.78-1.77-14,2.3-2.55,5.5-5.9,8.46-9.44C144,153,152.13,130,148,103.14c-1.28-8.27-2.11-17.11-.57-25.2,2.6-13.69,12-22,25.81-24.91,13.45-2.81,24.76,1.37,34,11.25,16.92,18.09,10.53,50.87-17.55,55.78-3.41.6-6.86,1.06-10.18,2-6,1.67-7.88,5.34-6.32,11.38,1.39,5.37,4.87,8,11.41,7.3,20.63-2.12,36.68-11.8,45.57-30.83C239.88,89.07,236.15,69.34,221.09,52.48Z"/><path class="cls-1" d="M90.86,112.5c.2,7.05-2.77,12.59-6.08,18.29s-2.51,9.63,2.05,13.25c5.73,4.55,12.88,2.59,17.14-5.28,5.75-10.63,7.41-21.89,5.64-34.07C105.1,73.85,74,54.35,44.75,60.18c-6.39,1.27-12.52,3.89-19.47,6.12C29.6,52.38,36.43,41.09,47,31.92l6.59,3.79L72.37,1.24c-16.87-3.78-31.3,1.59-45.44,9.4l5.59,7.29c-.64.75-1.23,1.48-1.85,2.18C5.77,48-4,80.62,1.47,117.51c2.3,15.53,9,29.13,22.29,38.47,7,4.91,13.8,4.12,17.29-1.49,2.95-4.74,1-9.37-6-14.23C21.61,131,18.29,118,21.87,103.08,26,85.76,43.23,76.1,62.46,79,77.73,81.27,90.4,96.59,90.86,112.5Z"/></g></g></svg>